<?xml version="1.0" encoding="UTF-8" standalone="no"?>
<!DOCTYPE svg PUBLIC "-//W3C//DTD SVG 1.1//EN"
 "http://www.w3.org/Graphics/SVG/1.1/DTD/svg11.dtd">
<!-- Generated by graphviz version 2.28.0 (20120218.0326)
 -->
<!-- Title: _anonymous_0 Pages: 1 -->
<svg width="462pt" height="476pt"
 viewBox="0.00 0.00 462.00 476.00" xmlns="http://www.w3.org/2000/svg" xmlns:xlink="http://www.w3.org/1999/xlink">
<g id="graph1" class="graph" transform="scale(1 1) rotate(0) translate(4 472)">
<title>_anonymous_0</title>
<polygon fill="white" stroke="white" points="-4,5 -4,-472 459,-472 459,5 -4,5"/>
<!-- story -->
<g id="node1" class="node"><title>story</title>
<ellipse fill="none" stroke="black" cx="31" cy="-306" rx="31.2735" ry="18"/>
<text text-anchor="middle" x="31" y="-302.3" font-family="Times,serif" font-size="14.00">Story</text>
</g>
<!-- sentence -->
<g id="node2" class="node"><title>sentence</title>
<ellipse fill="none" stroke="black" cx="97" cy="-234" rx="44.2946" ry="18"/>
<text text-anchor="middle" x="97" y="-230.3" font-family="Times,serif" font-size="14.00">Sentence</text>
</g>
<!-- story&#45;&gt;sentence -->
<g id="edge2" class="edge"><title>story&#45;&gt;sentence</title>
<path fill="none" stroke="black" d="M45.321,-289.811C53.9011,-280.711 64.993,-268.947 74.6999,-258.652"/>
<polygon fill="black" stroke="black" points="77.4748,-260.811 81.7884,-251.134 72.3816,-256.008 77.4748,-260.811"/>
</g>
<!-- tag -->
<g id="node10" class="node"><title>tag</title>
<ellipse fill="none" stroke="black" cx="97" cy="-90" rx="27" ry="18"/>
<text text-anchor="middle" x="97" y="-86.3" font-family="Times,serif" font-size="14.00">Tag</text>
</g>
<!-- story&#45;&gt;tag -->
<g id="edge36" class="edge"><title>story&#45;&gt;tag</title>
<path fill="none" stroke="black" d="M32.183,-288.001C33.7429,-269.89 37.1365,-240.51 44,-216 53.9881,-180.332 71.6839,-141.353 83.8616,-116.568"/>
<polygon fill="black" stroke="black" points="87.0585,-118 88.3885,-107.489 80.7941,-114.877 87.0585,-118"/>
</g>
<!-- word -->
<g id="node4" class="node"><title>word</title>
<ellipse fill="none" stroke="black" cx="205" cy="-162" rx="32.2457" ry="18"/>
<text text-anchor="middle" x="205" y="-158.3" font-family="Times,serif" font-size="14.00">Word</text>
</g>
<!-- sentence&#45;&gt;word -->
<g id="edge4" class="edge"><title>sentence&#45;&gt;word</title>
<path fill="none" stroke="black" d="M119.64,-218.326C135.969,-207.742 158.151,-193.365 175.811,-181.919"/>
<polygon fill="black" stroke="black" points="178.09,-184.613 184.578,-176.237 174.283,-178.738 178.09,-184.613"/>
</g>
<!-- sentence&#45;&gt;tag -->
<g id="edge34" class="edge"><title>sentence&#45;&gt;tag</title>
<path fill="none" stroke="black" d="M97,-215.871C97,-191.67 97,-147.211 97,-118.393"/>
<polygon fill="black" stroke="black" points="100.5,-118.189 97,-108.189 93.5001,-118.189 100.5,-118.189"/>
</g>
<!-- sequence -->
<g id="node3" class="node"><title>sequence</title>
<ellipse fill="none" stroke="black" cx="202" cy="-450" rx="46.2191" ry="18"/>
<text text-anchor="middle" x="202" y="-446.3" font-family="Times,serif" font-size="14.00">Sequence</text>
</g>
<!-- sequence&#45;&gt;story -->
<g id="edge18" class="edge"><title>sequence&#45;&gt;story</title>
<path fill="none" stroke="black" d="M163.46,-440.116C136.57,-432.277 101.291,-418.511 77,-396 58.6404,-378.986 46.3857,-352.974 39.1742,-333.459"/>
<polygon fill="black" stroke="black" points="42.4495,-332.222 35.8571,-323.928 35.8385,-334.522 42.4495,-332.222"/>
</g>
<!-- sequence&#45;&gt;sentence -->
<g id="edge16" class="edge"><title>sequence&#45;&gt;sentence</title>
<path fill="none" stroke="black" d="M166.855,-438.025C146.704,-429.803 122.916,-416.403 110,-396 84.1494,-355.164 87.2136,-296.34 91.9764,-262.257"/>
<polygon fill="black" stroke="black" points="95.4754,-262.533 93.5479,-252.115 88.5579,-261.461 95.4754,-262.533"/>
</g>
<!-- sequence&#45;&gt;word -->
<g id="edge14" class="edge"><title>sequence&#45;&gt;word</title>
<path fill="none" stroke="black" d="M237.363,-438.283C257.515,-430.156 281.064,-416.764 293,-396 332.869,-326.642 332.358,-285.649 293,-216 282.041,-196.607 260.829,-183.521 241.977,-175.205"/>
<polygon fill="black" stroke="black" points="243.264,-171.95 232.684,-171.39 240.606,-178.426 243.264,-171.95"/>
</g>
<!-- gpc -->
<g id="node5" class="node"><title>gpc</title>
<ellipse fill="none" stroke="black" cx="351" cy="-90" rx="29.3722" ry="18"/>
<text text-anchor="middle" x="351" y="-86.3" font-family="Times,serif" font-size="14.00">GPC</text>
</g>
<!-- sequence&#45;&gt;gpc -->
<g id="edge12" class="edge"><title>sequence&#45;&gt;gpc</title>
<path fill="none" stroke="black" d="M238.945,-439.143C293.443,-422.107 389,-381.599 389,-307 389,-307 389,-307 389,-233 389,-191.406 373.597,-145.217 362.404,-117.143"/>
<polygon fill="black" stroke="black" points="365.546,-115.581 358.508,-107.662 359.072,-118.242 365.546,-115.581"/>
</g>
<!-- ps -->
<g id="node9" class="node"><title>ps</title>
<ellipse fill="none" stroke="black" cx="202" cy="-378" rx="82.3139" ry="18"/>
<text text-anchor="middle" x="202" y="-374.3" font-family="Times,serif" font-size="14.00">ProductivitySearch</text>
</g>
<!-- sequence&#45;&gt;ps -->
<g id="edge20" class="edge"><title>sequence&#45;&gt;ps</title>
<path fill="none" stroke="black" d="M202,-431.697C202,-423.983 202,-414.712 202,-406.112"/>
<polygon fill="black" stroke="black" points="205.5,-406.104 202,-396.104 198.5,-406.104 205.5,-406.104"/>
</g>
<!-- word&#45;&gt;gpc -->
<g id="edge6" class="edge"><title>word&#45;&gt;gpc</title>
<path fill="none" stroke="black" d="M228.782,-149.597C253.502,-137.746 292.316,-119.136 319.555,-106.076"/>
<polygon fill="black" stroke="black" points="321.162,-109.188 328.666,-101.708 318.135,-102.876 321.162,-109.188"/>
</g>
<!-- word&#45;&gt;tag -->
<g id="edge32" class="edge"><title>word&#45;&gt;tag</title>
<path fill="none" stroke="black" d="M184.686,-147.834C167.595,-136.756 143.009,-120.82 124.217,-108.641"/>
<polygon fill="black" stroke="black" points="126.073,-105.673 115.777,-103.171 122.265,-111.547 126.073,-105.673"/>
</g>
<!-- grapheme -->
<g id="node6" class="node"><title>grapheme</title>
<ellipse fill="none" stroke="black" cx="294" cy="-18" rx="50.0684" ry="18"/>
<text text-anchor="middle" x="294" y="-14.3" font-family="Times,serif" font-size="14.00">Grapheme</text>
</g>
<!-- gpc&#45;&gt;grapheme -->
<g id="edge8" class="edge"><title>gpc&#45;&gt;grapheme</title>
<path fill="none" stroke="black" d="M338.35,-73.4647C331.175,-64.6538 322.036,-53.4298 313.92,-43.463"/>
<polygon fill="black" stroke="black" points="316.437,-41.0116 307.409,-35.4672 311.009,-45.4316 316.437,-41.0116"/>
</g>
<!-- phoneme -->
<g id="node7" class="node"><title>phoneme</title>
<ellipse fill="none" stroke="black" cx="408" cy="-18" rx="46.2191" ry="18"/>
<text text-anchor="middle" x="408" y="-14.3" font-family="Times,serif" font-size="14.00">Phoneme</text>
</g>
<!-- gpc&#45;&gt;phoneme -->
<g id="edge10" class="edge"><title>gpc&#45;&gt;phoneme</title>
<path fill="none" stroke="black" d="M363.65,-73.4647C370.825,-64.6538 379.964,-53.4298 388.08,-43.463"/>
<polygon fill="black" stroke="black" points="390.991,-45.4316 394.591,-35.4672 385.563,-41.0116 390.991,-45.4316"/>
</g>
<!-- wordlist -->
<g id="node8" class="node"><title>wordlist</title>
<ellipse fill="none" stroke="black" cx="241" cy="-234" rx="43.319" ry="18"/>
<text text-anchor="middle" x="241" y="-230.3" font-family="Times,serif" font-size="14.00">Wordlist</text>
</g>
<!-- wordlist&#45;&gt;word -->
<g id="edge30" class="edge"><title>wordlist&#45;&gt;word</title>
<path fill="none" stroke="black" d="M232.285,-216.055C228.085,-207.887 222.955,-197.912 218.281,-188.824"/>
<polygon fill="black" stroke="black" points="221.32,-187.081 213.634,-179.789 215.095,-190.283 221.32,-187.081"/>
</g>
<!-- ps&#45;&gt;story -->
<g id="edge28" class="edge"><title>ps&#45;&gt;story</title>
<path fill="none" stroke="black" d="M164.896,-361.811C135.243,-349.673 94.011,-332.794 65.162,-320.984"/>
<polygon fill="black" stroke="black" points="66.4683,-317.737 55.8877,-317.188 63.8164,-324.216 66.4683,-317.737"/>
</g>
<!-- ps&#45;&gt;sentence -->
<g id="edge26" class="edge"><title>ps&#45;&gt;sentence</title>
<path fill="none" stroke="black" d="M185.659,-359.888C176.296,-349.767 164.546,-336.517 155,-324 139.286,-303.394 123.349,-278.597 112.168,-260.417"/>
<polygon fill="black" stroke="black" points="114.971,-258.291 106.781,-251.57 108.993,-261.931 114.971,-258.291"/>
</g>
<!-- ps&#45;&gt;word -->
<g id="edge24" class="edge"><title>ps&#45;&gt;word</title>
<path fill="none" stroke="black" d="M197.836,-359.987C191.219,-330.513 179.847,-268.113 188,-216 189.38,-207.176 191.98,-197.816 194.738,-189.456"/>
<polygon fill="black" stroke="black" points="198.097,-190.454 198.11,-179.859 191.493,-188.134 198.097,-190.454"/>
</g>
<!-- ps&#45;&gt;gpc -->
<g id="edge22" class="edge"><title>ps&#45;&gt;gpc</title>
<path fill="none" stroke="black" d="M216.622,-360.237C236.157,-337.169 270.869,-293.74 293,-252 316.735,-207.235 334.587,-150.662 343.86,-117.88"/>
<polygon fill="black" stroke="black" points="347.268,-118.689 346.566,-108.117 340.522,-116.819 347.268,-118.689"/>
</g>
</g>
</svg>
